<?xml version="1.0" encoding="UTF-8"?>
<svg xmlns="http://www.w3.org/2000/svg" version="1.1" width="300" height="300" viewBox="0 0 300 300"><rect x="0" y="0" width="300" height="300" fill="#ffffff"/><g transform="scale(9.091)"><g transform="translate(2,2)"><path fill-rule="evenodd" d="M9 0L9 1L10 1L10 2L8 2L8 3L9 3L9 4L10 4L10 5L9 5L9 6L8 6L8 8L4 8L4 9L3 9L3 8L0 8L0 9L3 9L3 10L4 10L4 11L0 11L0 14L1 14L1 16L0 16L0 17L2 17L2 18L3 18L3 19L1 19L1 18L0 18L0 19L1 19L1 20L0 20L0 21L1 21L1 20L2 20L2 21L3 21L3 20L4 20L4 19L5 19L5 18L6 18L6 19L7 19L7 18L9 18L9 19L8 19L8 20L9 20L9 19L11 19L11 20L12 20L12 21L11 21L11 23L12 23L12 24L11 24L11 25L10 25L10 24L9 24L9 21L8 21L8 25L9 25L9 26L8 26L8 29L10 29L10 28L9 28L9 26L10 26L10 27L11 27L11 28L12 28L12 29L13 29L13 28L12 28L12 27L11 27L11 26L12 26L12 24L14 24L14 26L13 26L13 27L14 27L14 26L15 26L15 22L14 22L14 21L13 21L13 20L12 20L12 19L11 19L11 18L12 18L12 16L14 16L14 17L16 17L16 19L17 19L17 21L16 21L16 23L17 23L17 25L16 25L16 26L17 26L17 27L16 27L16 28L15 28L15 29L18 29L18 27L19 27L19 26L21 26L21 27L20 27L20 29L23 29L23 28L24 28L24 29L26 29L26 27L27 27L27 29L29 29L29 28L28 28L28 27L29 27L29 25L27 25L27 26L26 26L26 22L27 22L27 24L28 24L28 23L29 23L29 21L26 21L26 22L25 22L25 20L26 20L26 18L27 18L27 20L28 20L28 19L29 19L29 16L28 16L28 15L29 15L29 12L28 12L28 11L29 11L29 9L28 9L28 10L26 10L26 9L27 9L27 8L26 8L26 9L25 9L25 10L24 10L24 9L23 9L23 8L21 8L21 10L20 10L20 11L16 11L16 12L17 12L17 13L16 13L16 14L17 14L17 13L18 13L18 12L20 12L20 11L21 11L21 12L22 12L22 15L21 15L21 14L20 14L20 15L19 15L19 14L18 14L18 15L16 15L16 16L15 16L15 15L14 15L14 14L15 14L15 11L14 11L14 10L13 10L13 12L12 12L12 11L11 11L11 12L12 12L12 13L11 13L11 15L12 15L12 16L10 16L10 15L9 15L9 13L8 13L8 11L7 11L7 10L9 10L9 11L10 11L10 10L12 10L12 8L13 8L13 9L16 9L16 10L17 10L17 9L18 9L18 7L19 7L19 8L20 8L20 7L21 7L21 6L20 6L20 5L21 5L21 4L19 4L19 3L20 3L20 2L21 2L21 1L20 1L20 0L18 0L18 1L17 1L17 2L18 2L18 1L19 1L19 3L18 3L18 5L16 5L16 4L15 4L15 3L16 3L16 0L14 0L14 2L15 2L15 3L14 3L14 4L15 4L15 6L14 6L14 7L13 7L13 6L12 6L12 8L11 8L11 6L10 6L10 5L11 5L11 4L12 4L12 3L13 3L13 0L12 0L12 1L10 1L10 0ZM11 2L11 3L12 3L12 2ZM9 6L9 7L10 7L10 6ZM15 6L15 7L16 7L16 8L17 8L17 7L18 7L18 6L17 6L17 7L16 7L16 6ZM19 6L19 7L20 7L20 6ZM9 8L9 10L10 10L10 8ZM5 9L5 10L7 10L7 9ZM22 10L22 11L24 11L24 14L23 14L23 15L22 15L22 16L21 16L21 15L20 15L20 16L18 16L18 17L17 17L17 18L18 18L18 20L19 20L19 19L20 19L20 20L21 20L21 19L20 19L20 18L21 18L21 17L22 17L22 16L23 16L23 17L24 17L24 19L23 19L23 18L22 18L22 19L23 19L23 20L25 20L25 18L26 18L26 17L27 17L27 18L28 18L28 17L27 17L27 14L28 14L28 13L27 13L27 11L26 11L26 10L25 10L25 11L24 11L24 10ZM6 11L6 12L3 12L3 13L1 13L1 14L2 14L2 15L4 15L4 16L2 16L2 17L4 17L4 18L5 18L5 13L6 13L6 14L8 14L8 13L6 13L6 12L7 12L7 11ZM25 11L25 14L27 14L27 13L26 13L26 11ZM3 13L3 14L4 14L4 13ZM6 15L6 16L7 16L7 17L6 17L6 18L7 18L7 17L8 17L8 16L9 16L9 18L10 18L10 16L9 16L9 15L8 15L8 16L7 16L7 15ZM24 15L24 16L26 16L26 15ZM13 18L13 19L14 19L14 18ZM5 20L5 21L7 21L7 20ZM17 21L17 22L18 22L18 23L19 23L19 22L20 22L20 21ZM21 21L21 24L24 24L24 21ZM13 22L13 23L14 23L14 22ZM22 22L22 23L23 23L23 22ZM18 24L18 26L19 26L19 25L20 25L20 24ZM22 25L22 28L23 28L23 27L24 27L24 25ZM27 26L27 27L28 27L28 26ZM0 0L0 7L7 7L7 0ZM1 1L1 6L6 6L6 1ZM2 2L2 5L5 5L5 2ZM22 0L22 7L29 7L29 0ZM23 1L23 6L28 6L28 1ZM24 2L24 5L27 5L27 2ZM0 22L0 29L7 29L7 22ZM1 23L1 28L6 28L6 23ZM2 24L2 27L5 27L5 24Z" fill="#000000"/></g></g></svg>
